<svg xmlns="http://www.w3.org/2000/svg" viewBox="0 0 150 150"><defs><style>.a{fill:#fff;}.b{fill:#393939;}.c{fill:#8d8d8d;}.d{fill:#d86161;}</style></defs><circle class="a" cx="75" cy="75" r="63.56"/><rect class="b" x="56.65" y="52.91" width="3.66" height="15.29" transform="translate(49.69 -23.17) rotate(38.01)"/><rect class="b" x="74.02" y="51.27" width="3.66" height="15.29" transform="translate(171.14 46.93) rotate(135)"/><rect class="b" x="90.02" y="51.88" width="3.66" height="15.29" transform="translate(79.38 -49.21) rotate(50.52)"/><circle class="b" cx="50.06" cy="71.06" r="6.29"/><rect class="c" x="44.21" y="83.19" width="11.41" height="19.42" rx="0.92"/><rect class="c" x="61.07" y="62.77" width="11.41" height="39.84" rx="0.92"/><rect class="c" x="77.81" y="76.33" width="11.41" height="26.29" rx="0.92"/><rect class="c" x="94.51" y="65.17" width="11.41" height="37.44" rx="0.92"/><rect class="d" x="36.61" y="102.32" width="76.79" height="4.05" rx="0.92"/><circle class="d" cx="50.06" cy="71.06" r="3.66"/><circle class="b" cx="66.78" cy="49.92" r="6.29"/><circle class="d" cx="66.78" cy="49.92" r="3.66"/><circle class="b" cx="83.5" cy="65.54" r="6.29"/><circle class="d" cx="83.5" cy="65.54" r="3.66"/><circle class="b" cx="100.8" cy="52.21" r="6.29"/><circle class="d" cx="100.8" cy="52.21" r="3.66"/></svg>