<svg xmlns="http://www.w3.org/2000/svg" viewBox="0 0 150 150"><defs><style>.a{fill:#fff;}.b{fill:#d86161;}</style></defs><circle class="a" cx="75" cy="75" r="63.56"/><path class="b" d="M21.88,77.12V73.28a3.64,3.64,0,0,1,1.67-3.06L51.63,52V62.28L31.22,75.05v.31L51.63,88.12V98.38L23.55,80.18A3.64,3.64,0,0,1,21.88,77.12Z"/><path class="b" d="M84.57,47.29H89a2.21,2.21,0,0,1,2,3.11l-22.86,51a2.22,2.22,0,0,1-2,1.3H61.71a2.2,2.2,0,0,1-2-3.11l22.86-51A2.22,2.22,0,0,1,84.57,47.29Z"/><path class="b" d="M128.12,77.12V73.28a3.64,3.64,0,0,0-1.67-3.06L98.37,52V62.28l20.41,12.77v.31L98.37,88.12V98.38l28.08-18.2A3.64,3.64,0,0,0,128.12,77.12Z"/></svg>