<svg xmlns="http://www.w3.org/2000/svg" viewBox="0 0 150 150"><defs><style>.a{fill:#383838;}</style></defs><path class="a" d="M102.16,41.11H47.84a6.73,6.73,0,0,0-6.73,6.73v54.32a6.73,6.73,0,0,0,6.73,6.73h54.32a6.73,6.73,0,0,0,6.73-6.73V47.84A6.73,6.73,0,0,0,102.16,41.11ZM62.94,99.16h-10V68.77h10C63,69.16,63.06,98.3,62.94,99.16Zm-5-36.22A6.08,6.08,0,1,1,64,56.88,6.05,6.05,0,0,1,57.92,62.94Zm42.34,35.7c0,.16,0,.32,0,.52H90.13v-.68c0-5.61,0-11.22,0-16.83A5.33,5.33,0,0,0,88.83,78a4.92,4.92,0,0,0-6.92-.64,5,5,0,0,0-1.81,2.85A7.56,7.56,0,0,0,80,81.83c0,5.56,0,11.11,0,16.67v.6c-.42.13-9.48.15-10.12,0V68.78h10.1V72.7c.18-.18.27-.25.34-.33a11,11,0,0,1,7-4.21,8.58,8.58,0,0,1,3.53.16,12,12,0,0,1,8.45,6.91,11.22,11.22,0,0,1,1,4.85Q100.26,89.37,100.26,98.64Z"/></svg>