<svg xmlns="http://www.w3.org/2000/svg" viewBox="0 0 150 150"><defs><style>.a{fill:#d86161;}</style></defs><path class="a" d="M114.9,25.21H35.1a9.89,9.89,0,0,0-9.89,9.89v79.8a9.89,9.89,0,0,0,9.89,9.89h79.8a9.89,9.89,0,0,0,9.89-9.89V35.1A9.89,9.89,0,0,0,114.9,25.21ZM57.29,110.49H42.54V65.85H57.23C57.41,66.42,57.47,109.23,57.29,110.49ZM49.91,57.28a8.92,8.92,0,1,1,8.94-8.9A8.91,8.91,0,0,1,49.91,57.28Zm62.2,52.44c0,.24,0,.48,0,.78H97.22v-1q0-12.37,0-24.73a7.73,7.73,0,0,0-1.91-5.4,7.19,7.19,0,0,0-10.15-.94,7.35,7.35,0,0,0-2.67,4.18A12.18,12.18,0,0,0,82.27,85q0,12.25,0,24.49v.88c-.61.19-13.92.23-14.87,0V65.86H82.24v5.77c.27-.27.41-.37.51-.5A16.08,16.08,0,0,1,93.05,65a12.46,12.46,0,0,1,5.19.24,17.52,17.52,0,0,1,12.41,10.14,16.64,16.64,0,0,1,1.47,7.13Q112.09,96.1,112.11,109.72Z"/></svg>