<svg xmlns="http://www.w3.org/2000/svg" viewBox="0 0 150 150"><defs><style>.a{fill:#383838;}</style></defs><path class="a" d="M112.68,41.56H37.32a6.88,6.88,0,0,0-6.87,6.87v53.14a6.88,6.88,0,0,0,6.87,6.87h75.36a6.88,6.88,0,0,0,6.87-6.87V48.43A6.88,6.88,0,0,0,112.68,41.56Zm0,3a3.82,3.82,0,0,1,2.65,1.07l-39.51,35a1.3,1.3,0,0,1-1.64,0l-39.51-35a3.82,3.82,0,0,1,2.65-1.07Zm0,60.88H37.32a3.88,3.88,0,0,1-3.87-3.87v-53L72.19,82.91a4.29,4.29,0,0,0,5.62,0l38.74-34.35v53A3.88,3.88,0,0,1,112.68,105.44Z"/></svg>