<svg xmlns="http://www.w3.org/2000/svg" viewBox="0 0 150 150"><defs><style>.a{fill:#d86161;}</style></defs><path class="a" d="M112.68,108.44H37.32a6.88,6.88,0,0,1-6.87-6.87V48.43a6.88,6.88,0,0,1,6.87-6.87h75.36a6.88,6.88,0,0,1,6.87,6.87v53.14A6.88,6.88,0,0,1,112.68,108.44ZM37.32,44.56a3.88,3.88,0,0,0-3.87,3.87v53.14a3.88,3.88,0,0,0,3.87,3.87h75.36a3.88,3.88,0,0,0,3.87-3.87V48.43a3.88,3.88,0,0,0-3.87-3.87Z"/><path class="a" d="M75,84a4.23,4.23,0,0,1-2.81-1L31.65,47l2-2.24,40.54,36a1.3,1.3,0,0,0,1.64,0l40.54-35.95,2,2.24L77.81,82.91A4.23,4.23,0,0,1,75,84Z"/></svg>