<svg xmlns="http://www.w3.org/2000/svg" viewBox="0 0 1920 1080"><defs><style>.a,.b,.c,.d,.e,.f,.g,.h,.i,.j,.k,.l{fill:none;stroke:#505050;stroke-width:4px;}.a,.b,.c,.d,.e,.f,.g,.h,.i,.j,.k{stroke-linecap:round;stroke-linejoin:round;}.b{stroke-dasharray:0.94 18.85 0.94 18.85;}.c{stroke-dasharray:0.94 18.85 0.94 18.85 0.94 18.85;}.d{stroke-dasharray:0.93 18.56 0.93 18.56;}.e{stroke-dasharray:0.93 18.56 0.93 18.56 0.93 18.56;}.f{stroke-dasharray:0.9 17.97 0.9 17.97;}.g{stroke-dasharray:0.9 17.97 0.9 17.97 0.9 17.97;}.h{stroke-dasharray:1.04 20.78 1.04 20.78;}.i{stroke-dasharray:1.04 20.78 1.04 20.78 1.04 20.78;}.j{stroke-dasharray:0.96 19.27 0.96 19.27;}.k{stroke-dasharray:0.96 19.27 0.96 19.27 0.96 19.27;}.l{stroke-miterlimit:10;}</style></defs><path class="a" d="M699.43,799.91l-.33-.37"/><path class="b" d="M686.87,785.2q-9.48-11.72-18-24.21"/><path class="c" d="M663.66,753.14a363.78,363.78,0,0,1-55.95-157.6"/><path class="a" d="M606.8,586.15c0-.17,0-.33,0-.5"/><path class="a" d="M1205.74,836.33l-.38.32"/><path class="d" d="M1190.79,848.15q-11.86,8.9-24.45,16.83"/><path class="e" d="M1158.42,869.82A366.75,366.75,0,0,1,830,892.72"/><path class="a" d="M821.44,889l-.45-.2"/><path class="a" d="M1333.49,494.74c0,.17,0,.33.08.5"/><path class="f" d="M1335.75,513.07q1.38,14.19,1.68,28.7"/><path class="g" d="M1337.5,550.75a364.45,364.45,0,0,1-35.39,155.54"/><path class="a" d="M1298.15,714.35c-.07.15-.15.3-.23.45"/><path class="a" d="M929.05,191.52l.49-.05"/><path class="h" d="M950.25,189.7q10.54-.62,21.25-.61,6,0,12,.19"/><path class="i" d="M993.86,189.76c110.51,6.66,207.79,62.36,270.38,145.62"/><path class="a" d="M1270.37,343.77l.29.41"/><path class="a" d="M630,423.11l.18-.46"/><path class="j" d="M637.65,404.87q6.36-14.1,13.85-27.55"/><path class="k" d="M656.29,369A368.05,368.05,0,0,1,775.18,246.14"/><path class="a" d="M783.38,241.07l.43-.26"/><circle class="l" cx="880.18" cy="496.13" r="77.13"/><circle class="l" cx="615.61" cy="504.2" r="56.5"/><circle class="l" cx="868.52" cy="213.62" r="54.71"/><circle class="l" cx="1128.61" cy="559.81" r="65.47"/><circle class="l" cx="1306.19" cy="410.93" r="54.71"/><circle class="l" cx="1262.69" cy="780.88" r="56.95"/><circle class="l" cx="762.69" cy="845.91" r="58.3"/><circle class="l" cx="1005.29" cy="746.8" r="66.82"/><line class="l" x1="672.11" y1="499.76" x2="803.05" y2="499.76"/><line class="l" x1="952.39" y1="516.82" x2="1066.3" y2="539.65"/><line class="l" x1="1177.94" y1="519.12" x2="1268.5" y2="449.5"/><line class="l" x1="974.65" y1="685.67" x2="913.5" y2="566.09"/><line class="l" x1="1043.91" y1="692.28" x2="1093.57" y2="615.11"/><line class="l" x1="780.5" y1="790.5" x2="856.5" y2="569.09"/><line class="l" x1="814.5" y1="819.5" x2="944.5" y2="775.09"/><line class="l" x1="1236.93" y1="730.1" x2="1162.13" y2="616.98"/><line class="l" x1="874.87" y1="268.33" x2="874.87" y2="419"/><line class="l" x1="899.8" y1="257.5" x2="1097.99" y2="501.93"/></svg>