<svg xmlns="http://www.w3.org/2000/svg" xmlns:xlink="http://www.w3.org/1999/xlink" viewBox="0 0 1920 1080"><defs><style>.a{fill:none;}.b{fill:#6a6a6a;opacity:0.04;}.c{clip-path:url(#a);}.d{fill:#5eb5d9;}.e{fill:#91dbfa;}.f{opacity:0.77;}.g{clip-path:url(#c);}.h{fill:#a4eaff;}.i,.l{fill:#d86161;}.i{opacity:0.16;}.j{fill:#bebebe;}.k{fill:#3d3b78;}.m{fill:#ffb07d;}.n{opacity:0.3;}.o{clip-path:url(#e);}.p{fill:#393939;}.q{fill:#3d3369;}.r{fill:#8bb3c4;}.s{fill:#664ac7;}.t{fill:#fff;}.u{fill:#b4cad8;}.v{fill:#c1d3e0;}.w{fill:#5f99ae;}.x{fill:#ffbf52;}.y{fill:#00a99d;}.z{fill:#56c6be;}.aa{fill:#ff5475;}</style><clipPath id="a"><rect class="a" x="425.11" y="89.61" width="998.2" height="755.08"/></clipPath><clipPath id="c"><rect class="a" x="1058.29" y="158.37" width="114.75" height="117.32"/></clipPath><clipPath id="e"><rect class="a" x="447.43" y="805.23" width="823.89" height="39.47"/></clipPath></defs><path class="b" d="M1288,70.79C1466.38,143,1552.48,346,1480.32,524.41s-338.4,582.5-516.77,510.34S350,395,422.16,216.62,1109.63-1.37,1288,70.79Z"/><g class="c"><path class="d" d="M1211.85,196.25l-49.52-90,119.13-4Z"/><path class="e" d="M1225.44,130.51l-43.64,11,10.63,17.6Z"/><g class="c"><g class="f"><g class="g"><path class="h" d="M1164.93,176.18,1157,163.67c5.44-3.44,8.73-5.3,8.73-5.3l7.31,12.87c-.09,0-3.13,1.77-8.12,4.94"/><path class="h" d="M1082.49,253.21l-12.71-7.6a163.24,163.24,0,0,1,13.51-19.09l11.47,9.36a147,147,0,0,0-12.27,17.33m23-29.4-10.68-10.25c5.06-5.26,10.64-10.59,16.6-15.84l9.78,11.1c-5.65,5-10.93,10-15.7,15m28.25-25.47-9.18-11.6c5.84-4.65,12-9.22,18.26-13.61l8.49,12.13c-6,4.21-11.94,8.61-17.56,13.07"/><path class="h" d="M1072.56,275.69l-14.27-4a96.33,96.33,0,0,1,3.46-10.11l13.72,5.54a80.85,80.85,0,0,0-2.91,8.53"/></g></g></g><rect class="i" x="480.63" y="366.58" width="278.74" height="212.31"/><g class="c"><path class="j" d="M1374.11,349.8H1270.23a49.34,49.34,0,0,1,0-98.67h103.88a49.34,49.34,0,0,1,0,98.67m-103.88-83.87a34.54,34.54,0,0,0,0,69.07h103.88a34.54,34.54,0,1,0,0-69.07Z"/><path class="k" d="M889.88,278.07l-11.09-11.64L873.85,226l15.72,4.21Z"/><path class="l" d="M969.49,333.73l-71.12.82s-38.85,1.24-58.59,32.69c-7.62,12.13-51.18,75-51.18,75l-79.93,14.91s-11.5,3.32.82,27.14c50.16,8.22,80.56.24,103.61-9.87,8.92-3.92,45.38-54.38,45.38-54.38L869.17,602.6,1018,626.45l22.2-213.79s-4.2-15.6-9.87-36.17c-9.87-35.77-41.18-41.66-60.85-42.76"/><path class="k" d="M965.42,247.71c5.55-12.33,10.47-37.2-29.82-37.2,0,0-30.62-3.5-37.4-17.68-39.47-6.17-41.79,45.14-15.42,49.34,4.56.72,29.72,50.18,30.21,53.57,8.28-4.87,7.73,35.68,8,38.8l25.51-36.76c11.14-2,16.69-3.4,17.92-12.44Z"/><path class="m" d="M956.33,258.32,958,333.68l-50.3.17-1.08-20.3s-11.68-1-18.91-13.5c-4.88-8.4-4.27-58.5-4.27-58.5s21.67,2,28.53,2.79c4.94,18.91,44.4,14,44.4,14"/><path class="k" d="M966.82,274.65c0,7.14.78,22.31-9.09,22.31v-4.67c0-14.24-12.21-44-12.21-44,0-7.14,2.1-12.93,7.54-12.93,10.87,0,10.48,5,10.48,12.13Z"/><path class="m" d="M955.76,268.05a12.29,12.29,0,1,1-12.61-12h.32a12.13,12.13,0,0,1,12.29,12"/><path class="j" d="M664,248.74a40.3,40.3,0,0,1-1-80.58h1a40.3,40.3,0,0,1,1,80.58Zm0-65.79h-.66a25.49,25.49,0,0,0,.62,51h.66a25.49,25.49,0,0,0,24.85-26.12h0A25.65,25.65,0,0,0,664.07,183"/><rect class="j" x="972.76" y="89.62" width="14.8" height="51.72"/><rect class="j" x="954.29" y="108.07" width="51.73" height="14.8"/><path class="j" d="M1272.59,679.06,1236.52,643l36.07-36.07L1308.66,643ZM1257.46,643l15.13,15.14L1287.72,643l-15.13-15.14Z"/><rect class="j" x="1262.21" y="438.16" width="145.87" height="14.8"/><rect class="j" x="718.84" y="304.96" width="88.08" height="14.8"/><g class="n"><g class="o"><path class="p" d="M1271.32,825c0,10.9-8.21,19.73-18.34,19.73H465.78c-10.14,0-18.35-8.83-18.35-19.73s8.22-19.73,18.35-19.73H1253c10.14,0,18.35,8.83,18.35,19.73"/></g></g><path class="q" d="M677,829.75l-45.63-.62,7.4-16,13,1.23,29.6-2.46Z"/><path class="q" d="M796.31,801.22,750.92,806l5.47-16.79,13-.29L796,782.63Z"/><path class="l" d="M975.44,411.93l-9.87-33.71,14.2-4.2,9.86,33.71Z"/><path class="m" d="M822.31,393.75l32.89,33.31-35.77,41.31-35.77-21.58Z"/><path class="r" d="M893.62,554.84,865,423.8l-182.56-.07,28.65,131Z"/><path class="k" d="M683.76,599.73,639.36,816.8l41.93-3.7,80.22-201.51c-23.37,2.9-54.15-10.17-77.74-11.86"/><path class="k" d="M953.26,638l-273.09-6.79s.52-21,2.53-29.69c7.69-33.18,34.42-35.85,34.42-35.85l222.41-11.3Z"/><path class="k" d="M800.31,639.19,986.88,638s36.9-5.09,36.9-35.63c0-22.27,1-72.3,1-72.3l-135.06.62L891,544.22l-105.53,20Z"/><path class="s" d="M734.33,564l22.2,226.94L796,786l16.59-225.71,55.5-11.1s-64.87-13.39-74.56-16c-31.21-8.51-60.44,0-59.2,30.83"/><path class="m" d="M914.4,487.91l-9,29.6,23.44.82,18.14-.18,90.39.59s25.9-7.82,21-29.19c-6.61-28.68-19.32-81-19.32-81l-55.5,17.27,20.55,55.5-63.71,14.4Z"/><path class="t" d="M791.06,477.63a9.3,9.3,0,1,1-9.29-9.3,9.29,9.29,0,0,1,9.29,9.3h0"/><rect class="u" x="1006.72" y="674.59" width="14.8" height="160.68" transform="translate(-124.96 206.42) rotate(-10.95)"/><rect class="u" x="896.53" y="675.03" width="14.79" height="159.79" transform="translate(-108.68 153.58) rotate(-9.16)"/><rect class="v" x="804.01" y="639.16" width="239.9" height="35.62"/><rect class="r" x="913.21" y="518.56" width="310.81" height="19.73"/><rect class="w" x="997.08" y="538.29" width="118.4" height="296.01"/><path class="x" d="M1178.45,518.56H1129l-14.83-78.94h78.57Z"/><path class="y" d="M558.74,736.43c2.53-26.78-.82-32.4,31.44-51.87,16.57-10,30.23-41.94,12.11-63-14.3-16.64,1.88-28.94,19-39,15.27-9,21.54-35.14,11.14-50.4-7.22-10.58-17.76-20.81-4.85-40.46,26-39.7-42.17-57.64-66.85,3.81-38,94.51-23.14,241.28-23.14,241.28Z"/><path class="z" d="M426.66,600.73c-12.4-46.84,53.08-64,78.34-28.4s31.45,60.83,36.66,120.92c2.35,27.42.83,44.57.83,44.57l-22.56.35s.93-45.6-23.77-80.7c-22.42-31.84-55.93-5.45-69.5-56.74"/><path class="aa" d="M570.84,823.4H504.43L491.16,722h93Z"/><path class="j" d="M1135,421.58,1125.76,410c7.37-5.91,9.85-7.89-1.26-22.48-7.52-9.88-7.74-18.91-6.61-24.74,2-10.32,9.6-18.07,15.49-21.57l7.56,12.72a19.09,19.09,0,0,0-8.52,11.67c-.82,4.23.44,8.46,3.85,12.95,12.26,16.09,16.33,28.91-1.26,43"/><path class="j" d="M1159.41,434.13l-9.57-11.28c16-13.58,9.94-22.59,3.56-32.13l-1.17-1.75,12.38-8.12,1.09,1.64c6.41,9.58,19.75,29.52-6.28,51.64"/><path class="w" d="M972.41,834.3c0-11.72,6-24.67,19.33-24.67h127c13.34,0,19.33,13,19.33,24.67Z"/></g></g></svg>