<svg xmlns="http://www.w3.org/2000/svg" xmlns:xlink="http://www.w3.org/1999/xlink" viewBox="0 0 1920 1080"><defs><style>.a{fill:none;}.b{fill:#6171d8;}.c{fill:#e6e6e6;}.d{clip-path:url(#a);}.e{fill:#0f3c4b;}.f{opacity:0.6;}.g{clip-path:url(#c);}.h{fill:#fff;}.i{fill:#545657;}.j{opacity:0.15;}.k{clip-path:url(#d);}.l{fill:#24b3c9;}.m{clip-path:url(#e);}.n,.o{opacity:0.8;isolation:isolate;}.n{fill:url(#f);}.o{fill:url(#g);}</style><clipPath id="a"><rect class="a" x="566.24" y="147.27" width="787.51" height="896.78"/></clipPath><clipPath id="c"><rect class="a" x="575.53" y="733.31" width="759.7" height="310.74"/></clipPath><clipPath id="d"><rect class="a" x="960" y="147.27" width="156.68" height="628.77"/></clipPath><clipPath id="e"><rect class="a" x="896.7" y="355.6" width="112.91" height="112.91"/></clipPath><linearGradient id="f" x1="7.88" y1="1084.47" x2="9.95" y2="1084.47" gradientTransform="matrix(39.32, 0, 0, -46.05, 730.99, 50022.28)" gradientUnits="userSpaceOnUse"><stop offset="0" stop-color="#fff"/><stop offset="1" stop-color="#fff" stop-opacity="0.3"/></linearGradient><linearGradient id="g" x1="8.95" y1="1082.24" x2="11.01" y2="1082.24" gradientTransform="matrix(39.32, 0, 0, -46.04, 770.44, 50108.35)" xlink:href="#f"/></defs><circle class="b" cx="1227.15" cy="314.35" r="21.22"/><circle class="c" cx="1081.86" cy="195.93" r="12.73"/><path class="c" d="M865.66,52.56l-6.36,6.31L853,52.52l-4.23,4.21,6.31,6.35-6.36,6.31,4.21,4.24,6.36-6.31,6.31,6.35,4.23-4.2-6.31-6.36,6.36-6.31Z"/><path class="c" d="M791.41,198.07l-6.36,6.31L778.74,198l-4.23,4.21,6.31,6.35-6.36,6.32,4.21,4.23,6.35-6.31,6.32,6.36,4.23-4.21-6.31-6.36,6.35-6.31Z"/><g class="d"><g class="d"><path class="e" d="M1353,650.65c0,217.27-176.13,393.4-393.4,393.4s-393.4-176.13-393.4-393.4,176.13-393.4,393.4-393.4S1353,433.38,1353,650.65"/><g class="f"><g class="g"><path class="h" d="M1290.85,789.42c-41.49-24.82-94.22,4.6-95.12,52.83a47.11,47.11,0,0,0-62.87,42.16c-25.61-38.95-86.64-21-86.66,25.86-19.34-21.65-31.48-70.79-31.48-102.25H904.56c0,30.15-12.13,80.6-31.47,102.25a31.47,31.47,0,0,0-31.47-31.44,62.86,62.86,0,0,0-62.82-62.9,61.46,61.46,0,0,0-8,.5c.57-62.91-81.7-87.38-115.78-34.63-7.7-32.78-41.29-56.52-79.48-45.93,38.94,176.29,196.12,308.19,384.12,308.19a393.57,393.57,0,0,0,375.59-276,31.29,31.29,0,0,0-44.38,21.4"/></g></g><path class="h" d="M631.07,867c119.53,181.48,363.54,231.7,545,112.17a393.53,393.53,0,0,0,131.24-144.37,62.8,62.8,0,0,0-70.4,54.14q-.37,2.92-.48,5.88a62.33,62.33,0,0,0-45.74,14.44c-38.94-28.37-93.92-4.12-99.47,43.49a31.45,31.45,0,0,0-45,28.35c0,.89.07,1.77.15,2.64-35.75-38.85-49.95-124-55.22-175.74h-63c1.13,46-18.91,143.65-58,172.35a47.1,47.1,0,0,0-40.38-22.86,47.17,47.17,0,0,0-43.79-47c-6.1-49.94-65.59-72.69-103.52-39.92A62.52,62.52,0,0,0,631.07,867"/><path class="i" d="M1042.25,808H877l15.73-31.47h133.76Z"/><path class="b" d="M802.74,559.88a252.7,252.7,0,0,0-42.48,275.67,255.5,255.5,0,0,1,76.48-113c-18.08-49-31.52-104.15-34-162.63"/><path class="b" d="M1116.54,559.88c-2.49,58.48-15.93,113.6-34,162.63a255.44,255.44,0,0,1,76.49,113,252.72,252.72,0,0,0-42.48-275.67"/><path class="h" d="M859.41,776.54h200.46c31-65.76,57.13-147.48,57.13-236,0-217.26-157.36-393.39-157.36-393.39S802.28,323.23,802.28,540.5c0,88.57,26.15,170.28,57.13,236"/><path class="b" d="M975.38,575.9c0,8.69-15.74,259.65-15.74,259.65s-15.73-251-15.73-259.65a15.74,15.74,0,1,1,31.47,0h0"/><path class="b" d="M959.65,278.89a253.24,253.24,0,0,0,80.55-13.13c-40-73.2-80.55-118.66-80.55-118.66S919,192.56,879.09,265.76a253.24,253.24,0,0,0,80.55,13.13"/><g class="j"><g class="k"><path class="i" d="M1059.87,776.54c31-65.76,57.13-147.48,57.13-236,0-217.26-157.36-393.39-157.36-393.39V776.54Z"/></g></g><path class="i" d="M1038.32,418.55a78.68,78.68,0,1,1-78.68-78.68,78.68,78.68,0,0,1,78.68,78.68h0"/><path class="l" d="M1022.58,418.55a62.94,62.94,0,1,1-62.94-62.95h0a62.94,62.94,0,0,1,62.94,62.95"/><g class="j"><g class="m"><path class="i" d="M908.5,430.35a62.86,62.86,0,0,1,101.11-50,62.89,62.89,0,1,0-88.14,88.14,62.67,62.67,0,0,1-13-38.17"/></g></g></g></g><path class="b" d="M1212,189.49l-3,3-3-3-2,2,3,3-3,3,2,2,3-3,3,3,2-2-3-3,3-3Z"/><path class="n" d="M1042.8,130.51l30.79-36,30.79-36,17.38-20.35c1-1.12-.52-2.88-1.48-1.75l-30.79,36.05-30.79,36.05-17.38,20.35c-1,1.12.52,2.88,1.49,1.75Z"/><path class="o" d="M1124.15,330.31l30.79-36,30.78-36,17.39-20.35c1-1.13-.53-2.89-1.49-1.76l-30.79,36-30.78,36-17.39,20.35c-1,1.13.53,2.89,1.49,1.76Z"/></svg>