<svg xmlns="http://www.w3.org/2000/svg" viewBox="0 0 150 150"><defs><style>.a{fill:#fff;}.b{fill:#d86161;}</style></defs><circle class="a" cx="75" cy="75" r="63.56"/><path class="b" d="M45.83,40.08h69.44a5.59,5.59,0,0,1,5.59,5.59V95a3.44,3.44,0,0,1-3.44,3.44H43.69A3.44,3.44,0,0,1,40.24,95V45.66A5.59,5.59,0,0,1,45.83,40.08Z"/><rect class="a" x="42.78" y="43.34" width="74.65" height="45.02" rx="3.46"/><circle class="a" cx="80.11" cy="93.01" r="2.34"/><rect class="b" x="62.91" y="106.17" width="35.28" height="3.76" rx="1.18"/><rect class="b" x="72.67" y="97.07" width="15.75" height="9.65" rx="1.18"/><rect class="b" x="29.15" y="62.1" width="30.58" height="47.82" rx="5.46"/><rect class="a" x="30.87" y="67.11" width="27.12" height="37.84" rx="3.46"/><circle class="a" cx="44.44" cy="107.41" r="1.55"/><ellipse class="a" cx="44.44" cy="65.04" rx="3.9" ry="1.06"/></svg>