<svg xmlns="http://www.w3.org/2000/svg" viewBox="0 0 150 150"><defs><style>.a{fill:#fff;}.b{fill:#d86161;}</style></defs><circle class="a" cx="75" cy="75" r="63.56"/><path class="b" d="M41,93.72a19.27,19.27,0,0,1-12.78-4.5l1.68-5.76A16.26,16.26,0,0,0,41,88.32c3.6,0,6.36-1.8,6.36-5,0-3-1.68-4.56-7.56-6-7.56-1.86-10.56-5.88-10.56-11,0-5.88,4.68-10.14,12.42-10.14a18.23,18.23,0,0,1,10.8,3.54l-1.56,5.1a18.13,18.13,0,0,0-9.3-3.12c-3.54,0-5.64,1.56-5.64,4.14,0,2.1,1.26,3.72,6.18,4.92,8.4,2.1,12,5.64,12,11.88C54.12,90.36,47.76,93.72,41,93.72Z"/><path class="b" d="M57.78,93V57H81.24v5.7H65.1v8.46H78.24v5.7H65.1V87.3H81.24V93Z"/><path class="b" d="M102.36,94c-11,0-19.62-8-19.62-19s8.58-19,19.62-19,19.44,8,19.44,19S113.34,94,102.36,94Zm0-32.22c-7.2,0-11.94,5.4-11.94,13.2s4.74,13.2,11.94,13.2,11.76-5.4,11.76-13.2S109.44,61.8,102.36,61.8Z"/></svg>